<mxfile host="app.diagrams.net" agent="Mozilla/5.0 (Windows NT 10.0; Win64; x64) AppleWebKit/537.36 (KHTML, like Gecko) Chrome/132.0.0.0 Safari/537.36" version="26.0.10">
  <diagram name="Page-1" id="Yd3AI6tj6C7b2tDKycZy">
    <mxGraphModel dx="794" dy="461" grid="1" gridSize="10" guides="1" tooltips="1" connect="1" arrows="1" fold="1" page="1" pageScale="1" pageWidth="850" pageHeight="1100" math="0" shadow="0">
      <root>
        <mxCell id="0" />
        <mxCell id="1" parent="0" />
        <mxCell id="IdgU8ds0buS-AnNnNi-w-1" value="USECASE LEVEL 0" style="text;html=1;align=center;verticalAlign=middle;whiteSpace=wrap;rounded=0;fillColor=#0050ef;fontColor=#ffffff;strokeColor=#001DBC;strokeWidth=1;fontStyle=1;fontSize=19;movable=1;resizable=1;rotatable=1;deletable=1;editable=1;locked=0;connectable=1;" parent="1" vertex="1">
          <mxGeometry x="376" y="88" width="260" height="50" as="geometry" />
        </mxCell>
        <mxCell id="IdgU8ds0buS-AnNnNi-w-2" value="USER" style="shape=umlActor;verticalLabelPosition=bottom;verticalAlign=top;html=1;outlineConnect=0;movable=1;resizable=1;rotatable=1;deletable=1;editable=1;locked=0;connectable=1;" parent="1" vertex="1">
          <mxGeometry x="176" y="292" width="90" height="150" as="geometry" />
        </mxCell>
        <mxCell id="IdgU8ds0buS-AnNnNi-w-11" value="" style="rounded=0;whiteSpace=wrap;html=1;movable=1;resizable=1;rotatable=1;deletable=1;editable=1;locked=0;connectable=1;" parent="1" vertex="1">
          <mxGeometry x="391" y="158" width="230" height="470" as="geometry" />
        </mxCell>
        <mxCell id="IdgU8ds0buS-AnNnNi-w-13" value="USER AUTHENTICATION" style="ellipse;whiteSpace=wrap;html=1;movable=1;resizable=1;rotatable=1;deletable=1;editable=1;locked=0;connectable=1;" parent="1" vertex="1">
          <mxGeometry x="446" y="201" width="120" height="80" as="geometry" />
        </mxCell>
        <mxCell id="IdgU8ds0buS-AnNnNi-w-15" value="STOCK MANAGEMENT" style="ellipse;whiteSpace=wrap;html=1;movable=1;resizable=1;rotatable=1;deletable=1;editable=1;locked=0;connectable=1;" parent="1" vertex="1">
          <mxGeometry x="446" y="339" width="120" height="80" as="geometry" />
        </mxCell>
        <mxCell id="IdgU8ds0buS-AnNnNi-w-18" value="LEARNING MATERIAL" style="ellipse;whiteSpace=wrap;html=1;movable=1;resizable=1;rotatable=1;deletable=1;editable=1;locked=0;connectable=1;" parent="1" vertex="1">
          <mxGeometry x="446" y="471" width="120" height="80" as="geometry" />
        </mxCell>
        <mxCell id="IdgU8ds0buS-AnNnNi-w-22" value="" style="endArrow=open;endFill=1;endSize=12;html=1;rounded=0;movable=1;resizable=1;rotatable=1;deletable=1;editable=1;locked=0;connectable=1;entryX=0;entryY=0.5;entryDx=0;entryDy=0;" parent="1" edge="1" target="IdgU8ds0buS-AnNnNi-w-13">
          <mxGeometry width="160" relative="1" as="geometry">
            <mxPoint x="266" y="358" as="sourcePoint" />
            <mxPoint x="446" y="218" as="targetPoint" />
          </mxGeometry>
        </mxCell>
        <mxCell id="IdgU8ds0buS-AnNnNi-w-24" value="" style="endArrow=open;endFill=1;endSize=12;html=1;rounded=0;movable=1;resizable=1;rotatable=1;deletable=1;editable=1;locked=0;connectable=1;" parent="1" edge="1">
          <mxGeometry width="160" relative="1" as="geometry">
            <mxPoint x="266" y="358" as="sourcePoint" />
            <mxPoint x="446" y="388" as="targetPoint" />
          </mxGeometry>
        </mxCell>
        <mxCell id="IdgU8ds0buS-AnNnNi-w-26" value="" style="endArrow=open;endFill=1;endSize=12;html=1;rounded=0;movable=1;resizable=1;rotatable=1;deletable=1;editable=1;locked=0;connectable=1;entryX=0.022;entryY=0.408;entryDx=0;entryDy=0;entryPerimeter=0;" parent="1" edge="1" target="IdgU8ds0buS-AnNnNi-w-18">
          <mxGeometry width="160" relative="1" as="geometry">
            <mxPoint x="266" y="358" as="sourcePoint" />
            <mxPoint x="446" y="548" as="targetPoint" />
          </mxGeometry>
        </mxCell>
        <mxCell id="IdgU8ds0buS-AnNnNi-w-27" value="STOCK MARKET SIMULATOR" style="text;html=1;align=center;verticalAlign=middle;whiteSpace=wrap;rounded=0;fontStyle=1;fillColor=#fff2cc;strokeColor=#d6b656;gradientColor=#ffd966;" parent="1" vertex="1">
          <mxGeometry x="340" y="670" width="150" height="40" as="geometry" />
        </mxCell>
      </root>
    </mxGraphModel>
  </diagram>
</mxfile>
